# xmcd CD database file
#
# Track frame offsets:
#	150
#	13715
#	27969
#	42639
#	57243
#	71554
#	85737
#	101066
#	114386
#	127658
#	141631
#	155872
#	169811
#	183427
#	196196
#	212286
#	226858
#	241207
#	255080
#	269415
#	283665
#	297270
#	311094
#	325645
#	340197
#
# Disc length: 4728 seconds
#
# Revision: 0
# Processed by: cddbd v1.5.2PL0 Copyright (c) Steve Scherf et al.
# Submitted via: CDex 1.70beta2
#
DISCID=66127619
DTITLE=Tanner Gid and his Skillet Lickers - Old timey's favorite band 3
DYEAR=2012
DGENRE=Country
TTITLE0=The darktown Strutter's ball
TTITLE1=Drink 'er down
TTITLE2=Dixie
TTITLE3=The girl I left behind me
TTITLE4=The old gray mare
TTITLE5=John Henry (the steel drivin' man)
TTITLE6=Johnson's old gray mule
TTITLE7=Possum hunt on stump house mountain 1
TTITLE8=Possum hunt on stump house mountain 2
TTITLE9=Bile them cabbage down
TTITLE10=It's a long way to Tipperary
TTITLE11=Ols McDonald had a farm
TTITLE12=Big ball in town
TTITLE13=I'm satisfied
TTITLE14=Three nights drunk
TTITLE15=Buckin' mule
TTITLE16=Sleeping Lulu
TTITLE17=McMichen's breakdown
TTITLE18=Molly put the kettle on
TTITLE19=Whistlin' Rufus
TTITLE20=Miss McCleod's reel
TTITLE21=Four cent cotton
TTITLE22=Cacklin' hen and roostler too
TTITLE23=Rickett's hornpipe
TTITLE24=Ride old Buck to water
EXTD=YEAR: 2012
EXTT0=
EXTT1=
EXTT2=
EXTT3=
EXTT4=
EXTT5=
EXTT6=
EXTT7=
EXTT8=
EXTT9=
EXTT10=
EXTT11=
EXTT12=
EXTT13=
EXTT14=
EXTT15=
EXTT16=
EXTT17=
EXTT18=
EXTT19=
EXTT20=
EXTT21=
EXTT22=
EXTT23=
EXTT24=
PLAYORDER=
